<?xml version="1.0" standalone="no"?>
<!DOCTYPE svg PUBLIC "-//W3C//DTD SVG 20010904//EN"
 "http://www.w3.org/TR/2001/REC-SVG-20010904/DTD/svg10.dtd">
<svg version="1.0" xmlns="http://www.w3.org/2000/svg"
 width="247.000000pt" height="147.000000pt" viewBox="0 0 247.000000 147.000000"
 preserveAspectRatio="xMidYMid meet">

<g transform="translate(0.000000,147.000000) scale(0.100000,-0.100000)"
fill="#000000" stroke="none">
<path d="M28 1273 c17 -7 17 -129 0 -136 -7 -3 22 -6 65 -6 74 -1 77 0 77 22
-1 20 -2 20 -11 5 -6 -12 -22 -18 -44 -18 l-35 0 0 64 c0 42 4 66 13 69 6 3
-8 5 -33 5 -25 0 -39 -2 -32 -5z"/>
<path d="M207 1274 c-13 -13 -7 -24 14 -24 11 0 19 5 17 12 -5 14 -22 21 -31
12z"/>
<path d="M715 1213 c0 -54 -3 -68 -15 -68 -19 0 -26 51 -9 71 9 11 8 14 -5 14
-22 0 -48 -43 -39 -66 10 -27 20 -32 72 -32 l46 -1 -3 75 c-3 68 -5 74 -25 74
-20 0 -22 -5 -22 -67z"/>
<path d="M1001 1254 c-38 -32 -40 -66 -6 -99 17 -18 34 -25 57 -24 24 1 27 3
10 6 -32 6 -55 46 -47 82 7 33 20 46 50 54 16 4 14 5 -7 6 -15 1 -39 -10 -57
-25z"/>
<path d="M1114 1272 c-9 -5 -8 -11 2 -20 12 -11 14 -9 14 8 0 22 0 23 -16 12z"/>
<path d="M1295 1205 c0 -68 2 -75 20 -75 19 0 20 6 17 75 -3 62 -6 75 -20 75
-14 0 -17 -12 -17 -75z"/>
<path d="M389 1244 c-13 -14 -15 -30 -10 -64 5 -38 10 -45 31 -48 20 -3 23 -1
13 9 -19 19 -16 60 5 75 16 12 16 13 0 14 -9 0 -18 7 -20 16 -3 14 -5 14 -19
-2z"/>
<path d="M195 1180 c0 -47 2 -50 25 -50 24 0 25 2 22 50 -3 43 -7 50 -25 50
-20 0 -22 -5 -22 -50z"/>
<path d="M277 1223 c-15 -15 -5 -44 18 -55 27 -12 32 -24 13 -31 -8 -4 -7 -6
3 -6 9 -1 23 6 30 15 11 14 10 19 -9 34 -12 10 -28 21 -35 23 -9 4 -8 8 3 16
13 9 13 11 -1 11 -9 0 -19 -3 -22 -7z"/>
<path d="M497 1222 c6 -4 13 -25 15 -47 2 -28 8 -41 21 -43 14 -3 17 4 17 35
0 44 -14 63 -44 63 -13 0 -17 -3 -9 -8z"/>
<path d="M807 1212 c-35 -38 -15 -82 37 -82 l31 0 -24 13 c-39 20 -38 37 3 37
39 0 45 10 20 34 -21 21 -47 20 -67 -2z m51 -10 c2 -7 -6 -12 -17 -12 -21 0
-27 11 -14 24 9 9 26 2 31 -12z"/>
<path d="M1178 1219 c-21 -12 -24 -59 -6 -77 20 -20 65 -14 82 10 20 29 20 34
-4 58 -22 22 -46 25 -72 9z m52 -39 c0 -33 -3 -40 -20 -40 -16 0 -20 7 -20 33
0 36 6 47 27 47 9 0 13 -13 13 -40z"/>
<path d="M1378 1219 c-21 -12 -24 -59 -6 -77 18 -18 63 -14 81 6 23 25 21 48
-5 66 -26 18 -46 20 -70 5z m52 -40 c0 -33 -3 -40 -17 -37 -32 6 -30 78 2 78
11 0 15 -11 15 -41z"/>
<path d="M1495 1180 c0 -47 2 -50 25 -50 24 0 25 2 22 50 -3 43 -7 50 -25 50
-20 0 -22 -5 -22 -50z"/>
<path d="M1556 1221 c-3 -5 1 -12 10 -15 20 -8 29 -1 19 13 -8 13 -22 14 -29
2z"/>
<path d="M1618 1219 c-21 -12 -24 -59 -6 -77 7 -7 23 -12 37 -12 l25 0 -22 16
c-30 21 -28 34 8 34 31 0 39 17 18 38 -15 15 -37 15 -60 1z m50 -17 c2 -7 -6
-12 -17 -12 -21 0 -27 11 -14 24 9 9 26 2 31 -12z"/>
<path d="M1727 1223 c-15 -15 -5 -44 18 -55 27 -12 32 -23 13 -32 -7 -3 -4 -5
7 -3 31 4 32 44 1 59 -28 12 -33 24 -13 31 8 4 6 6 -4 6 -9 1 -19 -2 -22 -6z"/>
<path d="M325 1210 c3 -5 8 -10 11 -10 2 0 4 5 4 10 0 6 -5 10 -11 10 -5 0 -7
-4 -4 -10z"/>
<path d="M460 1206 c0 -9 7 -16 16 -16 17 0 14 22 -4 28 -7 2 -12 -3 -12 -12z"/>
<path d="M1775 1210 c3 -5 8 -10 11 -10 2 0 4 5 4 10 0 6 -5 10 -11 10 -5 0
-7 -4 -4 -10z"/>
<path d="M465 1167 c-20 -16 -13 -37 13 -37 11 0 17 8 17 25 0 29 -4 30 -30
12z"/>
<path d="M270 1140 c0 -5 5 -10 11 -10 5 0 7 5 4 10 -3 6 -8 10 -11 10 -2 0
-4 -4 -4 -10z"/>
<path d="M1715 1140 c3 -5 11 -10 16 -10 6 0 7 5 4 10 -3 6 -11 10 -16 10 -6
0 -7 -4 -4 -10z"/>
<path d="M1564 859 c-4 -7 -3 -9 3 -6 6 4 14 0 17 -9 5 -13 2 -15 -13 -11 -19
5 -38 -19 -26 -31 3 -3 5 0 5 6 0 16 33 15 48 0 10 -10 10 -6 1 20 -13 37 -25
47 -35 31z"/>
<path d="M1623 834 c-4 -10 1 -22 11 -30 16 -12 16 -13 -1 -17 -14 -4 -14 -5
5 -6 16 -1 22 5 22 19 0 13 -5 18 -15 14 -10 -4 -15 0 -15 11 0 11 5 15 15 11
8 -3 15 -1 15 4 0 17 -30 11 -37 -6z"/>
<path d="M1680 825 c0 -14 2 -25 4 -25 2 0 6 11 8 25 3 14 1 25 -3 25 -5 0 -9
-11 -9 -25z"/>
<path d="M1718 838 c-8 -20 2 -38 20 -38 15 0 15 2 2 10 -13 8 -12 10 3 10 11
0 17 6 15 13 -6 17 -34 21 -40 5z"/>
<path d="M1778 838 c-8 -20 2 -38 20 -39 14 0 13 -2 -3 -10 l-20 -9 20 3 c29
3 35 67 7 67 -11 0 -22 -6 -24 -12z m32 -13 c0 -8 -4 -15 -9 -15 -13 0 -22 16
-14 24 11 11 23 6 23 -9z"/>
<path d="M1854 842 c19 -8 19 -9 -3 -15 -27 -7 -19 -27 10 -27 28 0 22 44 -6
47 -19 3 -19 3 -1 -5z"/>
<path d="M1890 823 c0 -22 15 -26 15 -5 0 4 4 13 8 20 5 8 3 12 -7 12 -11 0
-16 -9 -16 -27z"/>
<path d="M640 580 c0 -22 3 -40 8 -40 4 0 6 18 4 40 -2 22 -6 40 -8 40 -2 0
-4 -18 -4 -40z"/>
<path d="M675 575 c0 -19 3 -35 8 -35 4 0 7 16 7 35 0 19 -3 35 -7 35 -5 0 -8
-16 -8 -35z"/>
<path d="M204 579 c-8 -14 11 -33 25 -25 16 10 13 36 -3 36 -8 0 -18 -5 -22
-11z"/>
<path d="M353 579 c19 -11 23 -29 6 -29 -5 0 -7 5 -3 12 4 7 3 8 -4 4 -23 -14
-12 -26 23 -26 32 0 35 2 34 28 -2 23 -2 24 -6 5 -5 -28 -23 -30 -23 -3 0 14
-7 20 -22 20 -21 -1 -21 -2 -5 -11z"/>
<path d="M425 580 c3 -5 11 -10 16 -10 6 0 7 5 4 10 -3 6 -11 10 -16 10 -6 0
-7 -4 -4 -10z"/>
<path d="M465 564 c0 -13 3 -24 8 -24 4 0 7 9 7 19 0 11 -3 22 -7 24 -5 3 -8
-6 -8 -19z"/>
<path d="M513 580 c21 -13 23 -34 2 -26 -8 3 -15 1 -15 -4 0 -6 9 -10 21 -10
28 0 23 44 -6 48 -18 2 -18 2 -2 -8z"/>
<path d="M559 588 c-7 -22 -3 -48 7 -48 8 0 11 6 7 16 -3 9 0 20 8 25 11 7 11
9 -3 9 -10 0 -18 -1 -19 -2z"/>
<path d="M604 565 c1 -33 16 -33 16 0 0 14 -4 25 -9 25 -5 0 -8 -11 -7 -25z"/>
<path d="M712 578 c-15 -18 1 -41 24 -36 23 4 26 41 3 46 -9 1 -21 -3 -27 -10z
m36 -16 c2 -7 -3 -12 -12 -12 -9 0 -16 7 -16 16 0 17 22 14 28 -4z"/>
<path d="M525 445 c0 -19 3 -35 8 -35 4 0 7 16 7 35 0 19 -3 35 -7 35 -5 0 -8
-16 -8 -35z"/>
<path d="M204 449 c-10 -17 13 -36 27 -22 12 12 4 33 -11 33 -5 0 -12 -5 -16
-11z"/>
<path d="M354 452 c3 -6 2 -13 -4 -17 -13 -8 -13 -25 1 -25 5 0 8 4 4 9 -3 5
-1 12 5 16 5 3 10 -1 10 -9 0 -9 4 -16 10 -16 13 0 -4 43 -20 48 -7 3 -10 0
-6 -6z"/>
<path d="M409 451 c9 -6 10 -11 2 -15 -19 -12 -12 -26 12 -26 16 0 18 3 8 9
-9 6 -10 11 -2 15 19 12 12 26 -11 26 -17 0 -19 -3 -9 -9z"/>
<path d="M458 435 c2 -14 8 -25 12 -25 4 0 5 11 2 25 -2 14 -8 25 -12 25 -4 0
-5 -11 -2 -25z"/>
<path d="M491 438 c-1 -16 4 -28 9 -28 12 0 12 8 0 35 -8 18 -9 17 -9 -7z"/>
</g>
</svg>
